<svg width="21" height="24" viewBox="0 0 21 24" fill="none" xmlns="http://www.w3.org/2000/svg">
<path d="M9.94773 5.77578C9.69176 4.3804 10.3516 2.94439 11.1461 1.97664C12.0218 0.908854 13.5246 0.0899883 14.8089 0C15.0258 1.46297 14.4288 2.88836 13.6429 3.8966C12.7998 4.97974 11.3503 5.8197 9.94773 5.77578ZM17.4807 10.832C17.8781 9.72329 18.6654 8.72577 19.8867 8.05273C18.6525 6.5126 16.9197 5.61845 15.2844 5.61845C13.1209 5.61845 12.2061 6.64923 10.7034 6.64923C9.15536 6.64923 7.98095 5.61845 6.10693 5.61845C4.26926 5.61845 2.31315 6.73851 1.07257 8.65142C0.616424 9.3585 0.30743 10.2369 0.138913 11.2153C-0.328688 13.96 0.369802 17.535 2.45339 20.7094C3.46646 22.2497 4.8168 23.9847 6.58087 23.9998C8.15234 24.0152 8.59814 22.9951 10.7255 22.9846C12.856 22.9725 13.2598 24.0104 14.8291 23.9954C16.5937 23.9805 18.0184 22.0604 19.0315 20.5203C19.7528 19.4151 20.0256 18.8568 20.5865 17.6073C17.7344 16.5317 16.5614 13.3889 17.4807 10.832Z" fill="#253017"/>
</svg>
