<svg xmlns="http://www.w3.org/2000/svg" width="24" height="24" fill="none" viewBox="0 0 24 24"><path fill="currentColor" d="M14.7907 22H9.2093C4.1581 22 2 19.8419 2 14.7907V9.2093C2 4.1581 4.1581 2 9.2093 2h5.5814C19.8419 2 22 4.1581 22 9.2093v5.5814C22 19.8419 19.8419 22 14.7907 22M9.2093 3.3954c-4.2884 0-5.814 1.5255-5.814 5.8139v5.5814c0 4.2884 1.5256 5.814 5.814 5.814h5.5814c4.2884 0 5.814-1.5256 5.814-5.814V9.2093c0-4.2884-1.5256-5.814-5.814-5.814z"/><path fill="currentColor" d="M10.8282 15.9814a.69.69 0 0 1-.4931-.2047c-.2697-.2697-.2697-.7163 0-.986L13.1258 12l-2.7907-2.7907c-.2697-.2698-.2697-.7163 0-.986.2698-.2698.7163-.2698.9861 0l3.2837 3.2837c.2698.2697.2698.7162 0 .986l-3.2837 3.2837a.69.69 0 0 1-.493.2047"/></svg>