<svg xmlns="http://www.w3.org/2000/svg" width="24" height="24" fill="none" viewBox="0 0 24 24"><path fill="currentColor" d="M12 21.7549c-.2791 0-.5581-.0651-.7907-.1953-1.7395-.9489-4.8-1.9535-6.7163-2.2047l-.2697-.0372C3.0046 19.1689 2 18.0247 2 16.7875V5.5503c0-.7349.2884-1.4047.8186-1.8884s1.2186-.7163 1.9442-.6512c2.0465.1582 5.1349 1.1814 6.8837 2.2791l.2233.1303c.0651.0372.2046.0372.2604.0093l.1489-.093c1.7488-1.0978 4.8372-2.1396 6.893-2.3164h.1116c.6791-.065 1.3768.1768 1.8977.6605C21.7116 4.1642 22 4.834 22 5.569v11.2279c0 1.2465-1.0047 2.3814-2.2326 2.5302l-.3069.0372c-1.9163.2512-4.9861 1.2651-6.6884 2.2047-.2233.1302-.493.186-.7721.186M4.5395 4.3968c-.2976 0-.5674.1023-.7814.2977-.2325.214-.3628.5209-.3628.8558v11.2372c0 .5488.4745 1.0791 1.0047 1.1535l.279.0372c2.093.2791 5.3024 1.3302 7.1629 2.3442.0837.0372.2046.0465.2511.0279 1.8605-1.0326 5.0884-2.093 7.1907-2.3721l.3163-.0372c.5302-.0651 1.0047-.6047 1.0047-1.1535V5.5595c0-.3441-.1303-.6418-.3628-.865-.2419-.214-.5489-.3163-.8931-.2977h-.1116c-1.7767.1581-4.6419 1.1163-6.2046 2.093l-.1489.1023c-.5116.3163-1.2372.3163-1.7302.0093l-.2233-.1302c-1.5907-.9767-4.4558-1.9256-6.279-2.0744z"/><path fill="currentColor" d="M11.9999 20.9736c-.3814 0-.6977-.3163-.6977-.6977V6.3224c0-.3814.3163-.6977.6977-.6977s.6977.3163.6977.6977v13.9535c0 .3907-.3163.6977-.6977.6977M8.0466 9.8108h-2.093c-.3815 0-.6977-.3163-.6977-.6977s.3162-.6977.6976-.6977h2.093c.3814 0 .6977.3163.6977.6977s-.3163.6977-.6976.6977m.6976 2.7907H5.9535c-.3814 0-.6976-.3163-.6976-.6977s.3162-.6977.6976-.6977h2.7907c.3814 0 .6977.3163.6977.6977s-.3163.6977-.6977.6977"/></svg>