<svg xmlns="http://www.w3.org/2000/svg" width="24" height="24" fill="none" viewBox="0 0 24 24"><path fill="currentColor" d="M15.4904 22H8.0485c-4.2976 0-5.0976-2-5.3023-3.9442l-.6977-7.4512c-.1023-.9767-.1302-2.4186.8372-3.4976.8373-.9303 2.2233-1.3768 4.2326-1.3768h9.3023c2.0186 0 3.4047.4558 4.2326 1.3768.9674 1.079.9395 2.5209.8372 3.5069l-.6977 7.4326C20.5881 20 19.7881 22 15.4904 22M7.1184 7.1163c-1.5722 0-2.6512.307-3.2.9209-.456.5023-.6047 1.2744-.4838 2.4279l.6977 7.4512c.1581 1.4697.5581 2.6883 3.9162 2.6883h7.4419c3.3488 0 3.7581-1.2186 3.9163-2.6976l.6977-7.4326c.1209-1.1628-.0279-1.9349-.4838-2.4372-.5488-.614-1.6279-.921-3.2-.921z"/><path fill="currentColor" d="M15.4901 7.1163c-.3814 0-.6977-.3163-.6977-.6977v-.7442c0-1.6558 0-2.279-2.279-2.279H11.025c-2.279 0-2.279.6232-2.279 2.279v.7442c0 .3814-.3163.6977-.6977.6977s-.6977-.3163-.6977-.6977v-.7442c0-1.6372 0-3.6744 3.6744-3.6744h1.4884c3.6744 0 3.6744 2.0372 3.6744 3.6744v.7442c0 .3814-.3163.6977-.6977.6977m-3.721 9.3023c-2.5582 0-2.5582-1.5814-2.5582-2.5302v-.9582c0-1.3116.3163-1.6279 1.6279-1.6279h1.8605c1.3116 0 1.6279.3163 1.6279 1.6279v.9303c0 .9674 0 2.5581-2.5581 2.5581m-1.1628-3.7209v1.1907c0 .9581 0 1.1349 1.1628 1.1349s1.1628-.1489 1.1628-1.1442v-1.1814z"/><path fill="currentColor" d="M13.6296 14.5768c-.3442 0-.6511-.2605-.6884-.614-.0465-.3814.2233-.7349.6047-.7814 2.4558-.307 4.8093-1.2372 6.7907-2.6791.307-.2325.7442-.1581.9767.1582.2233.3069.1582.7442-.1581.9767-2.1767 1.5814-4.7442 2.5954-7.4419 2.9396zm-3.7206.0093h-.0837c-2.5488-.2884-5.0325-1.2187-7.1813-2.6884-.3163-.214-.4-.6512-.186-.9675.2139-.3162.651-.4.9673-.186 1.9628 1.3395 4.2233 2.186 6.5489 2.4558.3814.0465.6605.3907.6139.7721-.0279.3535-.3255.614-.679.614"/></svg>