<svg xmlns="http://www.w3.org/2000/svg" width="24" height="24" fill="none" viewBox="0 0 24 24"><path fill="currentColor" d="M8.349 6.186c-.3814 0-.6976-.3162-.6976-.6976V2.6977c0-.3814.3163-.6977.6976-.6977.3814 0 .6977.3163.6977.6977v2.7907c0 .3814-.3163.6976-.6977.6976m7.4419 0c-.3814 0-.6976-.3162-.6976-.6976V2.6977c0-.3814.3162-.6977.6976-.6977s.6977.3163.6977.6977v2.7907c0 .3814-.3163.6976-.6977.6976M8.814 14.3256c-.121 0-.2418-.0279-.3535-.0744-.1209-.0465-.214-.1117-.307-.1954-.1674-.1767-.2697-.4093-.2697-.6605 0-.1209.0279-.2418.0744-.3534a1.07 1.07 0 0 1 .1954-.307c.093-.0837.186-.1489.307-.1954.3348-.1395.7534-.0651 1.0139.1954.1674.1767.2697.4186.2697.6604 0 .0559-.0092.121-.0185.1861a.59.59 0 0 1-.0559.1674.7.7 0 0 1-.0837.1675c-.0279.0465-.0744.093-.1116.1395-.1768.1674-.4186.2698-.6605.2698m3.2559 0c-.1209 0-.2419-.0279-.3535-.0744-.1209-.0466-.214-.1117-.307-.1954-.1674-.1768-.2698-.4093-.2698-.6605 0-.1209.028-.2418.0745-.3535a1.07 1.07 0 0 1 .1953-.3069c.093-.0837.1861-.1489.307-.1954.3349-.1488.7535-.0651 1.0139.1954.1675.1767.2698.4186.2698.6604 0 .0558-.0093.121-.0186.1861a.6.6 0 0 1-.0558.1674.7.7 0 0 1-.0837.1675c-.0279.0465-.0744.093-.1117.1395-.1767.1674-.4186.2698-.6604.2698m3.2558 0c-.1209 0-.2418-.0279-.3534-.0744-.121-.0466-.214-.1117-.307-.1954l-.1117-.1395a.7.7 0 0 1-.0837-.1675.6.6 0 0 1-.0558-.1674c-.0093-.0651-.0186-.1303-.0186-.1861 0-.2418.1023-.4837.2698-.6604.093-.0837.186-.1489.307-.1954.3441-.1488.7534-.0651 1.0139.1954.1674.1767.2698.4186.2698.6604 0 .0558-.0093.121-.0186.1861a.6.6 0 0 1-.0558.1674.7.7 0 0 1-.0838.1675c-.0279.0465-.0744.093-.1116.1395-.1767.1674-.4186.2698-.6605.2698M8.814 17.5814c-.121 0-.2418-.0279-.3535-.0744a1.07 1.07 0 0 1-.307-.1954c-.1674-.1767-.2697-.4186-.2697-.6604 0-.121.0279-.2419.0744-.3535q.0697-.1815.1954-.307c.3441-.3442.9767-.3442 1.3209 0 .1674.1768.2697.4186.2697.6605s-.1023.4837-.2697.6604c-.1768.1675-.4186.2698-.6605.2698m3.2559 0c-.2419 0-.4837-.1023-.6605-.2698-.1674-.1767-.2698-.4186-.2698-.6604 0-.121.028-.2419.0745-.3535q.0698-.1815.1953-.307c.3442-.3442.9768-.3442 1.3209 0q.1257.1255.1954.307c.0465.1116.0744.2325.0744.3535 0 .2418-.1023.4837-.2698.6604-.1767.1675-.4186.2698-.6604.2698m3.2558 0c-.2418 0-.4837-.1023-.6604-.2698q-.1256-.1256-.1954-.3069c-.0465-.1117-.0744-.2326-.0744-.3535s.0279-.2419.0744-.3535q.0698-.1814.1954-.307c.2139-.2139.5395-.3163.8372-.2512a.56.56 0 0 1 .1767.0559.7.7 0 0 1 .1675.0837c.0465.0279.093.0744.1395.1116.1674.1768.2698.4186.2698.6605s-.1024.4837-.2698.6604c-.1767.1675-.4186.2698-.6605.2698m4.6513-7.5907H4.163c-.3814 0-.6977-.3163-.6977-.6977s.3163-.6977.6977-.6977h15.814c.3814 0 .6976.3163.6976.6977s-.3162.6977-.6976.6977"/><path fill="currentColor" d="M15.7907 22H8.3488C4.9535 22 3 20.0465 3 16.6512v-7.907c0-3.3954 1.9535-5.3488 5.3488-5.3488h7.4419c3.3953 0 5.3488 1.9534 5.3488 5.3488v7.907c0 3.3953-1.9535 5.3488-5.3488 5.3488M8.3488 4.7907c-2.6604 0-3.9535 1.293-3.9535 3.9535v7.907c0 2.6604 1.293 3.9535 3.9535 3.9535h7.4419c2.6605 0 3.9535-1.2931 3.9535-3.9535v-7.907c0-2.6605-1.293-3.9535-3.9535-3.9535z"/></svg>