<svg xmlns="http://www.w3.org/2000/svg" width="24" height="24" fill="none" viewBox="0 0 24 24"><path fill="currentColor" stroke="currentColor" d="M9.209 2.5h5.582c2.468 0 4.1098.5297 5.1445 1.5644S21.5 6.741 21.5 9.209v5.582c0 2.468-.5297 4.1098-1.5645 5.1445C18.9008 20.9703 17.259 21.5 14.791 21.5H9.209c-2.468 0-4.1098-.5297-5.1445-1.5645C3.0297 18.9008 2.5 17.259 2.5 14.791V9.209c0-2.468.5297-4.1098 1.5644-5.1445S6.741 2.5 9.209 2.5Zm0 .3955c-2.1793 0-3.8054.3825-4.8682 1.4453S2.8956 7.0297 2.8955 9.209v5.582c0 2.1793.3825 3.8054 1.4453 4.8682s2.6889 1.4453 4.8682 1.4453h5.582c2.1793 0 3.8054-.3826 4.8682-1.4453s1.4453-2.6889 1.4453-4.8682V9.209c0-2.1793-.3826-3.8054-1.4453-4.8682s-2.6889-1.4453-4.8682-1.4453z"/></svg>