<svg xmlns="http://www.w3.org/2000/svg" width="24" height="24" fill="none" viewBox="0 0 24 24"><path fill="currentColor" d="M12 22C6.4837 22 2 17.5163 2 12S6.4837 2 12 2s10 4.4837 10 10-4.4837 10-10 10m0-18.6046c-4.7442 0-8.6046 3.8604-8.6046 8.6046S7.2558 20.6047 12 20.6047 20.6047 16.7442 20.6047 12 16.7442 3.3954 12 3.3954"/><path fill="currentColor" d="M15.4515 15.6558c-.1209 0-.2419-.0279-.3535-.1023l-2.8837-1.7209c-.7163-.4279-1.2465-1.3675-1.2465-2.1954v-3.814c0-.3813.3163-.6976.6976-.6976.3814 0 .6977.3163.6977.6977v3.8139c0 .3349.2791.8279.5675.9954l2.8837 1.7209c.3349.1954.4372.6233.2418.9581-.1395.2233-.372.3442-.6046.3442"/></svg>