<svg xmlns="http://www.w3.org/2000/svg" width="40" height="20" fill="none" viewBox="0 0 40 20"><path fill="currentColor" d="M26.7226 16.0917a.57.57 0 0 1 .1692-.4076l5.0149-5.0149c.3692-.3692.3692-.9692 0-1.3384L26.8918 4.316c-.223-.223-.223-.5922 0-.8153.2231-.223.5923-.223.8153 0l5.0149 5.015c.8153.8152.8153 2.1459 0 2.9689l-5.0149 5.0149c-.223.223-.5922.223-.8153 0-.1077-.1154-.1692-.2615-.1692-.4077M6.7207 10a2.097 2.097 0 0 1 .6153-1.4845l5.0149-5.0149c.2231-.223.5922-.223.8153 0s.2231.5923 0 .8153L8.1513 9.331c-.3692.3691-.3692.9691 0 1.3383l5.0149 5.0149c.2231.223.2231.5922 0 .8153-.2231.223-.5922.223-.8153 0l-5.0149-5.015A2.097 2.097 0 0 1 6.7207 10"/></svg>