<svg xmlns="http://www.w3.org/2000/svg" width="24" height="24" fill="none" viewBox="0 0 24 24"><path fill="currentColor" d="M6.086 18.9705c-.5722 0-1.1068-.197-1.4914-.5627-.4877-.4596-.7222-1.1537-.6377-1.904l.347-3.0389c.0656-.5721.4127-1.3318.816-1.7445l7.7003-8.1505c1.9227-2.0353 3.9299-2.0916 5.9652-.1688 2.0352 1.9227 2.0915 3.9298.1688 5.9651l-7.7003 8.1505c-.394.4221-1.1255.816-1.6977.9098l-3.02.5159c-.1595.0094-.3002.0281-.4503.0281m9.7449-15.5788c-.7222 0-1.3506.4502-1.9884 1.1255L6.1422 12.677c-.1876.1969-.4033.6659-.4408.9379l-.347 3.0388c-.0376.3096.0375.5628.2063.7222.1688.1595.422.2158.7316.1689l3.02-.5159c.272-.0469.7223-.2907.9099-.4877l7.7003-8.1505c1.163-1.238 1.5851-2.3823-.1126-3.9768-.7503-.7222-1.3975-1.0223-1.979-1.0223"/><path fill="currentColor" d="M17.1531 10.9325h-.0657c-2.9263-.2907-5.2805-2.5136-5.7307-5.4212-.0563-.3845.2064-.741.5909-.8066.3845-.0562.741.2064.8066.591.3564 2.2697 2.1947 4.0142 4.4833 4.2393.3845.0375.6659.3846.6284.7691-.0469.3564-.3564.6284-.7128.6284M20.586 22H3.7034C3.319 22 3 21.6811 3 21.2966s.3189-.7035.7034-.7035H20.586c.3845 0 .7034.3189.7034.7035S20.9705 22 20.586 22"/></svg>