<svg xmlns="http://www.w3.org/2000/svg" width="24" height="24" fill="none" viewBox="0 0 24 24"><path fill="currentColor" d="M11.4235 18.4186c-.307 0-.614-.0744-.8931-.2326-.5674-.3163-.9116-.893-.9116-1.5442v-2.8651c0-.1767-.1395-.5209-.279-.6976l-2.0187-2.121c-.3814-.3814-.6697-1.0511-.6697-1.5628V8.1581c0-1.0325.7814-1.8325 1.7767-1.8325h7.1349c.9767 0 1.7767.8 1.7767 1.7767V9.293c0 .6512-.3721 1.3674-.7441 1.7395l-2.3535 2.0838c-.1489.1302-.307.4558-.307.7255v2.3256c0 .5861-.3535 1.2372-.8279 1.5163l-.7349.4744c-.2884.1768-.614.2605-.9488.2605M8.4281 7.7209c-.2232 0-.3814.186-.3814.4372v1.2372c0 .121.1303.4372.279.586l2.0652 2.1768c.3163.4.6233 1.0419.6233 1.6186v2.8651c0 .1861.1209.2884.1953.3256.1023.0558.2698.093.4186 0l.7442-.4837c.0744-.0558.1674-.2419.1674-.3349v-2.3256c0-.6604.3256-1.3953.7907-1.7767L15.6374 10c.1209-.121.307-.493.307-.7256v-1.172c0-.2047-.1768-.3815-.3814-.3815z"/><path fill="currentColor" d="M14.7907 22H9.2093C4.1581 22 2 19.8419 2 14.7907V9.2093C2 4.1581 4.1581 2 9.2093 2h5.5814C19.8419 2 22 4.1581 22 9.2093v5.5814C22 19.8419 19.8419 22 14.7907 22M9.2093 3.3954c-4.2884 0-5.814 1.5255-5.814 5.8139v5.5814c0 4.2884 1.5256 5.814 5.814 5.814h5.5814c4.2884 0 5.814-1.5256 5.814-5.814V9.2093c0-4.2884-1.5256-5.814-5.814-5.814z"/></svg>