<svg xmlns="http://www.w3.org/2000/svg" width="24" height="24" fill="none" viewBox="0 0 24 24"><path fill="currentColor" d="M9.2074 10.84C7.7938 10.84 6.65 9.696 6.65 8.2825c0-1.4137 1.144-2.5576 2.5575-2.5576s2.5575 1.144 2.5575 2.5576S10.621 10.84 9.2074 10.84m0-3.72c-.6417 0-1.1625.5207-1.1625 1.1625S8.5657 9.445 9.2074 9.445 10.37 8.9242 10.37 8.2825s-.5208-1.1626-1.1625-1.1626"/><path fill="currentColor" d="M14.7875 22h-5.58C4.1576 22 2 19.8424 2 14.7925v-5.58c0-5.05 2.1576-7.2076 7.2075-7.2076h3.72c.3813 0 .6975.3162.6975.6975s-.3162.6976-.6975.6976h-3.72C4.9202 3.4 3.395 4.9252 3.395 9.2125v5.58c0 4.2873 1.5252 5.8125 5.8125 5.8125h5.58c4.2874 0 5.8126-1.5252 5.8126-5.8125v-4.65c0-.3813.3162-.6975.6975-.6975s.6975.3162.6975.6975v4.65c0 5.0499-2.1576 7.2075-7.2076 7.2075"/><path fill="currentColor" d="M15.4105 9.91c-.3627 0-.6975-.1302-.9393-.3813-.2883-.2883-.4278-.7161-.3627-1.1532l.186-1.2928c.0465-.3254.2418-.7253.4836-.9578l3.376-3.376c1.3485-1.3485 2.5203-.5766 3.0969 0 .5487.5487.7998 1.1253.744 1.7206-.0465.4742-.2883.93-.744 1.3764l-3.3759 3.3759c-.2325.2325-.6324.4278-.9579.4836l-1.2928.186c-.0744.0186-.1488.0186-.2139.0186m3.7201-6.166-3.376 3.376c-.0279.0278-.0744.1301-.0837.1766l-.1767 1.209 1.2183-.1673c.0372-.0093.1395-.0558.1767-.093l3.376-3.376c.2046-.2046.3255-.3906.3348-.53.0186-.1954-.1767-.4372-.3348-.5953-.4836-.4836-.7068-.4278-1.1346 0"/><path fill="currentColor" d="M20.2745 6.5434a.6.6 0 0 1-.186-.028c-1.2462-.3533-2.2413-1.3484-2.5947-2.5946-.1023-.372.1116-.7533.4836-.8556s.7533.1116.8556.4836c.2232.7812.8463 1.4135 1.6368 1.6368.372.1023.5859.4929.4836.8556-.1023.2976-.3813.5022-.6789.5022M3.3206 19.1635c-.2232 0-.4464-.1116-.5766-.3069-.2139-.3162-.1302-.7533.186-.9672l4.585-3.0783c1.0043-.6696 2.39-.5952 3.3014.1767l.3069.2697c.465.3999 1.2555.3999 1.7112 0l3.8689-3.3201c.9858-.8463 2.5389-.8463 3.534 0l1.5159 1.302a.7033.7033 0 0 1 .0744.9858.7033.7033 0 0 1-.9858.0744l-1.5159-1.302c-.465-.3999-1.2555-.3999-1.7112 0l-3.8689 3.3201c-.9858.8463-2.5389.8463-3.534 0l-.3069-.2697c-.4278-.3627-1.1346-.3999-1.6089-.0744l-4.5756 3.0783c-.1302.0744-.2697.1116-.3999.1116"/></svg>