<svg xmlns="http://www.w3.org/2000/svg" width="24" height="24" fill="none" viewBox="0 0 24 24"><path fill="currentColor" d="M9.2095 10.8372c-1.414 0-2.5581-1.1442-2.5581-2.5581s1.1442-2.5582 2.5581-2.5582 2.5581 1.1442 2.5581 2.5582-1.1441 2.5581-2.558 2.5581m0-3.721c-.6418 0-1.1628.521-1.1628 1.1629s.521 1.1628 1.1628 1.1628 1.1628-.521 1.1628-1.1628-.521-1.1628-1.1628-1.1628"/><path fill="currentColor" d="M14.7907 22H9.2093C4.1581 22 2 19.8419 2 14.7907V9.2093C2 4.1581 4.1581 2 9.2093 2h3.7209c.3814 0 .6977.3163.6977.6977s-.3163.6976-.6977.6976H9.2093c-4.2884 0-5.814 1.5256-5.814 5.814v5.5814c0 4.2884 1.5256 5.814 5.814 5.814h5.5814c4.2884 0 5.814-1.5256 5.814-5.814v-4.6512c0-.3814.3162-.6976.6976-.6976S22 9.758 22 10.1395v4.6512C22 19.8419 19.8419 22 14.7907 22"/><path fill="currentColor" d="M20.6045 6.186h-5.1163c-.3814 0-.6977-.3162-.6977-.6976s.3163-.6977.6977-.6977h5.1163c.3814 0 .6977.3163.6977.6977s-.3163.6976-.6977.6976"/><path fill="currentColor" d="M18.0463 8.7442c-.3814 0-.6977-.3163-.6977-.6977V2.9302c0-.3814.3163-.6976.6977-.6976s.6977.3162.6977.6976v5.1163c0 .3814-.3163.6977-.6977.6977M3.3208 19.1628c-.2233 0-.4465-.1116-.5768-.307-.214-.3163-.1302-.7535.186-.9674l4.5861-3.0791c1.0047-.6698 2.3907-.5953 3.3024.1767l.3069.2698c.4652.4 1.2558.4 1.7117 0l3.8697-3.3209c.9954-.8465 2.5396-.8465 3.5349 0l1.5163 1.3023a.7034.7034 0 0 1 .0744.9861.7035.7035 0 0 1-.986.0744l-1.5163-1.3023c-.4651-.4-1.2558-.4-1.7116 0l-3.8698 3.3209c-.9861.8465-2.5395.8465-3.5349 0l-.307-.2698c-.4279-.3628-1.1349-.4-1.6093-.0744l-4.5767 3.0791c-.1303.0744-.2698.1116-.4.1116"/></svg>