<svg xmlns="http://www.w3.org/2000/svg" width="24" height="24" fill="none" viewBox="0 0 24 24"><path fill="currentColor" d="M12 22C6.4837 22 2 17.5163 2 12S6.4837 2 12 2s10 4.4837 10 10-4.4837 10-10 10m0-18.6046c-4.7442 0-8.6046 3.8604-8.6046 8.6046S7.2558 20.6047 12 20.6047 20.6047 16.7442 20.6047 12 16.7442 3.3954 12 3.3954"/><path fill="currentColor" d="M9.2097 21.0698h-.9302c-.3814 0-.6977-.3163-.6977-.6977s.2977-.6884.679-.6977c-1.4604-4.986-1.4604-10.3628 0-15.3488-.3813-.0093-.679-.3163-.679-.6977s.3163-.6977.6977-.6977h.9302c.2233 0 .4372.1117.5675.2884.1302.186.1674.4186.093.6326-1.7489 5.2558-1.7489 11.0418 0 16.3069.0744.214.0372.4466-.093.6326-.1303.1674-.3442.2791-.5675.2791m5.581 0c-.0744 0-.1489-.0093-.2233-.0373-.3628-.1209-.5674-.5209-.4372-.8837 1.7489-5.2558 1.7489-11.0418 0-16.307-.1209-.3627.0744-.7627.4372-.8837.3721-.1209.7628.0745.8837.4372 1.8512 5.5442 1.8512 11.6465 0 17.1814a.692.692 0 0 1-.6604.4931"/><path fill="currentColor" d="M11.9999 16.8372c-2.5953 0-5.1813-.3628-7.6744-1.0977-.0093.3721-.3163.6791-.6976.6791-.3815 0-.6977-.3163-.6977-.6977v-.9302c0-.2233.1116-.4372.2883-.5675.186-.1302.4187-.1674.6326-.093 5.2558 1.7489 11.0512 1.7489 16.307 0 .2139-.0744.4465-.0372.6325.093.1861.1303.2884.3442.2884.5675v.9302c0 .3814-.3163.6977-.6977.6977s-.6883-.2977-.6976-.6791c-2.5024.7349-5.0884 1.0977-7.6838 1.0977m8.3722-6.9302c-.0745 0-.1489-.0093-.2233-.0372-5.2558-1.7489-11.0512-1.7489-16.307 0-.372.1209-.7628-.0745-.8837-.4372-.1116-.3721.0837-.7628.4465-.8838 5.5442-1.8511 11.6465-1.8511 17.1814 0 .3628.121.5674.521.4372.8838-.0837.2883-.3628.4744-.6511.4744"/></svg>