<svg xmlns="http://www.w3.org/2000/svg" width="24" height="24" fill="none" viewBox="0 0 24 24"><path fill="currentColor" d="M17.386 22H6.614C4.065 22 2 19.9233 2 17.3717v-6.9006c0-1.2665.7814-2.8589 1.786-3.6411L8.8 2.9187c1.507-1.1734 3.9163-1.2292 5.4791-.1304l5.7488 4.0323C21.1349 7.5936 22 9.2512 22 10.6015v6.7795C22 19.9233 19.9349 22 17.386 22M9.6558 4.0176l-5.014 3.9112c-.6604.5215-1.2464 1.7042-1.2464 2.5423v6.9006c0 1.7787 1.4418 3.2314 3.2186 3.2314h10.772c1.7768 0 3.2187-1.4434 3.2187-3.2221v-6.7795c0-.894-.6419-2.1325-1.3768-2.6354l-5.7488-4.0323c-1.0605-.745-2.8093-.7078-3.8233.0838"/><path fill="currentColor" d="M12 18.75c-.41 0-.75-.34-.75-.75v-3c0-.41.34-.75.75-.75s.75.34.75.75v3c0 .41-.34.75-.75.75"/></svg>