<svg xmlns="http://www.w3.org/2000/svg" width="24" height="24" fill="none" viewBox="0 0 24 24"><path fill="currentColor" d="M8.8669 22h.1265c4.3233 0 6.407-1.704 6.7673-5.5209.039-.3993-.2532-.7595-.6621-.7985-.3895-.0389-.7595.2629-.7985.6621-.2823 3.0575-1.7234 4.1967-5.3164 4.1967H8.857c-3.963 0-5.3651-1.4021-5.3651-5.3651V8.8257c0-3.963 1.4021-5.3651 5.3651-5.3651h.1266c3.6125 0 5.0535 1.1587 5.3164 4.2745.0487.3993.3895.7011.7985.6622.4089-.0292.7011-.3895.6718-.7887C15.4394 3.7332 13.3459 2 8.9934 2H8.867C4.0859 2 2.041 4.0448 2.041 8.8257v6.3486C2.0411 19.9552 4.086 22 8.867 22"/><path fill="currentColor" d="M9.1005 12.7303h11.0808c.3993 0 .7303-.3311.7303-.7303s-.331-.7303-.7303-.7303H9.1005c-.3992 0-.7303.3311-.7303.7303s.3311.7303.7303.7303"/><path fill="currentColor" d="M18.0102 15.9922c.185 0 .37-.0682.5161-.2142l3.2619-3.2619c.2824-.2824.2824-.7498 0-1.0322L18.5263 8.222c-.2824-.2824-.7498-.2824-1.0321 0s-.2824.7498 0 1.0321L20.24 12l-2.7458 2.7459c-.2824.2823-.2824.7497 0 1.0321.1363.146.331.2142.516.2142"/></svg>