<svg xmlns="http://www.w3.org/2000/svg" width="24" height="24" fill="none" viewBox="0 0 24 24"><path fill="currentColor" d="M11.9722 22c-.6401 0-1.2431-.3247-1.6698-.8905l-1.3915-1.8553c-.0278-.0371-.1391-.0835-.1855-.0928h-.4638C4.3933 19.1614 2 18.1132 2 12.8998V8.2616C2 4.1614 4.1614 2 8.2616 2h7.4211c4.1002 0 6.2616 2.1614 6.2616 6.2616v4.6382c0 4.1002-2.1614 6.2616-6.2616 6.2616h-.4638c-.0742 0-.1391.0371-.1855.0928l-1.3915 1.8553c-.4267.5658-1.0297.8905-1.6697.8905M8.2616 3.3915c-3.321 0-4.8701 1.5491-4.8701 4.8701v4.6382c0 4.193 1.4378 4.8701 4.8701 4.8701h.4638c.4731 0 1.0111.2691 1.2987.6494l1.3915 1.8553c.3247.4267.7885.4267 1.1132 0l1.3914-1.8553a1.626 1.626 0 0 1 1.2987-.6494h.4638c3.321 0 4.8702-1.5491 4.8702-4.8701V8.2616c0-3.321-1.5492-4.8701-4.8702-4.8701z"/><path fill="currentColor" d="M16.6104 8.9573H7.3339c-.3803 0-.6957-.3154-.6957-.6957s.3154-.6957.6957-.6957h9.2765c.3803 0 .6957.3154.6957.6957s-.3154.6957-.6957.6957m-3.7106 4.6382H7.3339c-.3803 0-.6957-.3154-.6957-.6957s.3154-.6957.6957-.6957h5.5659c.3803 0 .6957.3154.6957.6957s-.3154.6957-.6957.6957"/></svg>