<svg xmlns="http://www.w3.org/2000/svg" width="24" height="24" fill="none" viewBox="0 0 24 24"><path fill="currentColor" d="M12.4255 22c-.1581 0-.3163 0-.4744-.0093-5.2088-.2325-9.5618-4.4275-9.9246-9.5433-.3163-4.3902 2.223-8.4922 6.3157-10.213 1.1626-.4836 1.7765-.1116 2.037.1582.2604.2604.6232.865.1395 1.9719a7.62 7.62 0 0 0-.6325 3.116c.0186 4.1205 3.4415 7.6178 7.6179 7.7853.6046.0279 1.1999-.0186 1.7765-.121 1.2278-.2232 1.7394.2698 1.9347.586.1954.3163.4186.9953-.3255 1.9998C18.9179 20.4281 15.7833 22 12.4255 22m-9.013-9.6549c.3162 4.4275 4.0925 8.0551 8.5944 8.2504 3.0602.1488 5.9622-1.2464 7.7481-3.6834.1395-.1953.2047-.3348.2326-.4092-.0838-.0093-.2326-.0186-.4651.0279-.679.1209-1.3859.1674-2.0835.1395-4.9112-.1953-8.9294-4.3159-8.9573-9.1712 0-1.2836.2511-2.5207.7627-3.6834.093-.2046.1116-.3441.121-.4186-.0838 0-.2326.0186-.4744.121-3.5439 1.4882-5.739 5.0413-5.4786 8.827"/></svg>