<svg xmlns="http://www.w3.org/2000/svg" width="24" height="24" fill="none" viewBox="0 0 24 24"><path fill="currentColor" d="M14.7907 22H9.2093C4.1581 22 2 19.8419 2 14.7907V9.2093C2 4.1581 4.1581 2 9.2093 2h5.5814C19.8419 2 22 4.1581 22 9.2093v5.5814C22 19.8419 19.8419 22 14.7907 22M9.2093 3.3954c-4.2884 0-5.814 1.5255-5.814 5.8139v5.5814c0 4.2884 1.5256 5.814 5.814 5.814h5.5814c4.2884 0 5.814-1.5256 5.814-5.814V9.2093c0-4.2884-1.5256-5.814-5.814-5.814z"/><path fill="currentColor" d="M12.0001 12.9302A.927.927 0 0 1 11.0698 12c0-.5116.4186-.9302.9303-.9302s.9302.4186.9302.9302a.927.927 0 0 1-.9302.9302m3.7207 0A.927.927 0 0 1 14.7905 12c0-.5116.4186-.9302.9303-.9302s.9302.4186.9302.9302a.927.927 0 0 1-.9302.9302m-7.4419 0A.927.927 0 0 1 7.3486 12c0-.5116.4186-.9302.9303-.9302s.9302.4186.9302.9302a.927.927 0 0 1-.9302.9302"/></svg>