<svg xmlns="http://www.w3.org/2000/svg" width="24" height="24" fill="none" viewBox="0 0 24 24">
  <path
    stroke="currentColor"
    stroke-linecap="round"
    stroke-linejoin="round"
    stroke-width="1.5"
    vector-effect="non-scaling-stroke"
    d="M3.527 14.493c-.1917 1.2546.6642 2.1249 1.7118 2.5587 4.0167 1.665 9.6057 1.665 13.6224 0 1.0476-.4338 1.9035-1.305 1.7118-2.5587-.117-.7713-.6993-1.413-1.1304-2.0403-.5643-.8316-.6201-1.7379-.621-2.7027C18.8225 6.0222 15.7913 3 12.05 3S5.2775 6.0222 5.2775 9.75c0 .9648-.0558 1.872-.621 2.7027-.4302.6273-1.0116 1.269-1.1295 2.0403"
  />
  <path
    stroke="currentColor"
    stroke-linecap="round"
    stroke-linejoin="round"
    stroke-width="1.5"
    vector-effect="non-scaling-stroke"
    d="M8.4502 18.3c.4122 1.5525 1.8684 2.7 3.6 2.7 1.7325 0 3.1869-1.1475 3.6-2"
  />
</svg>
