<svg xmlns="http://www.w3.org/2000/svg" width="24" height="24" fill="none" viewBox="0 0 24 24"><path fill="currentColor" d="M15.4038 8.784c-.6903 0-1.25-.5597-1.25-1.25s.5597-1.25 1.25-1.25 1.25.5596 1.25 1.25-.5596 1.25-1.25 1.25m-4.498-.813c-.6904 0-1.25-.5596-1.25-1.25s.5596-1.25 1.25-1.25 1.25.5596 1.25 1.25-.5597 1.25-1.25 1.25m-3.502 2.719c-.6904 0-1.25-.5596-1.25-1.25s.5596-1.25 1.25-1.25 1.25.5597 1.25 1.25-.5596 1.25-1.25 1.25m-.9688 4.216c-.6903 0-1.25-.5596-1.25-1.25s.5597-1.25 1.25-1.25 1.25.5596 1.25 1.25-.5596 1.25-1.25 1.25m2.2188 3.792c-.6904 0-1.25-.5596-1.25-1.25s.5596-1.25 1.25-1.25 1.25.5596 1.25 1.25-.5596 1.25-1.25 1.25"/><path stroke="currentColor" stroke-linejoin="round" stroke-width="1.5" d="M21.25 12.25A9.25 9.25 0 1 0 12 21.5c1.318 0 2.224-1.28 2.329-2.594l.117-1.473a3 3 0 0 1 .8715-1.8846 3 3 0 0 1 1.8865-.8674l1.651-.129c1.28-.1 2.395-1.019 2.395-2.302Z"/></svg>