<svg xmlns="http://www.w3.org/2000/svg" width="24" height="24" fill="none" viewBox="0 0 24 24"><path fill="currentColor" d="M12 22C6.4837 22 2 17.5163 2 12S6.4837 2 12 2s10 4.4837 10 10-4.4837 10-10 10m0-18.6046c-4.7442 0-8.6046 3.8604-8.6046 8.6046S7.2558 20.6047 12 20.6047 20.6047 16.7442 20.6047 12 16.7442 3.3954 12 3.3954"/><path fill="currentColor" d="M15.7211 12.6977H8.2792c-.3814 0-.6977-.3163-.6977-.6977s.3163-.6977.6977-.6977h7.4419c.3814 0 .6977.3163.6977.6977s-.3163.6977-.6977.6977"/><path fill="currentColor" d="M11.9999 16.4186c-.3814 0-.6977-.3163-.6977-.6977V8.2791c0-.3814.3163-.6977.6977-.6977s.6977.3163.6977.6977v7.4418c0 .3814-.3163.6977-.6977.6977"/></svg>