<svg xmlns="http://www.w3.org/2000/svg" width="24" height="24" fill="none" viewBox="0 0 24 24"><path fill="currentColor" d="M16.6512 20.2093H7.3488C3.9535 20.2093 2 18.2558 2 14.8605V8.3488C2 4.9535 3.9535 3 7.3488 3h9.3024C20.0465 3 22 4.9535 22 8.3488v6.5117c0 3.3953-1.9535 5.3488-5.3488 5.3488M7.3488 4.3953c-2.6604 0-3.9534 1.293-3.9534 3.9535v6.5117c0 2.6604 1.293 3.9535 3.9534 3.9535h9.3024c2.6604 0 3.9535-1.2931 3.9535-3.9535V8.3488c0-2.6604-1.2931-3.9535-3.9535-3.9535z"/><path fill="currentColor" d="M11.9998 12.4139c-.7814 0-1.5721-.2418-2.1768-.7348L6.9115 9.3535c-.2977-.2419-.3535-.6791-.1116-.9768s.679-.3535.9767-.1116l2.9117 2.3256c.7069.5674 1.9069.5674 2.6139 0l2.9116-2.3256c.2977-.2419.7442-.1953.9768.1116.2419.2977.1953.7442-.1116.9768l-2.9117 2.3256c-.5953.493-1.386.7348-2.1674.7348"/></svg>