<svg xmlns="http://www.w3.org/2000/svg" width="24" height="24" fill="none" viewBox="0 0 24 24"><path fill="currentColor" d="M2 14.7907V9.2093C2 4.1581 4.1581 2 9.2093 2h5.5814C19.8419 2 22 4.1581 22 9.2093v5.5814C22 19.8419 19.8419 22 14.7907 22H9.2093C4.1581 22 2 19.8419 2 14.7907m18.6047-5.5814c0-4.2884-1.5256-5.814-5.814-5.814H9.2093c-4.2884 0-5.814 1.5256-5.814 5.814v5.5814c0 4.2884 1.5256 5.814 5.814 5.814h5.5814c4.2884 0 5.814-1.5256 5.814-5.814z"/><path fill="currentColor" d="M8.484 9.7674a.69.69 0 0 1 .2046-.493l2.3163-2.3163a1.398 1.398 0 0 1 1.9814 0l2.3163 2.3163c.2697.2698.2697.7163 0 .9861s-.7163.2697-.9861 0l-2.3163-2.3163-2.3255 2.3163c-.2698.2697-.7163.2697-.9861 0-.1302-.1396-.2046-.3163-.2046-.493m-.0006 4.465a.69.69 0 0 1 .2047-.493c.2698-.2697.7163-.2697.986 0l2.3256 2.3163 2.3256-2.3163c.2698-.2697.7163-.2697.986 0 .2698.2698.2698.7163 0 .9861l-2.3162 2.3163a1.398 1.398 0 0 1-1.9814 0l-2.3163-2.3163a.685.685 0 0 1-.214-.4931"/></svg>