<svg xmlns="http://www.w3.org/2000/svg" width="24" height="24" fill="none" viewBox="0 0 24 24">
  <path
    fill="currentColor"
    d="M12.5 22a2.35 2.35 0 0 1-1.67-.6979l-5.6418-5.6877c-.251-.253-.251-.6717 0-.9247s.6663-.2529.9172 0l5.6418 5.6877a1.059 1.059 0 0 0 1.5056 0l5.6418-5.6877c.2509-.2529.6663-.2529.9172 0s.2509.6717 0 .9247L14.17 21.3021A2.35 2.35 0 0 1 12.5 22"
  />
  <path
    fill="currentColor"
    d="M12.5 2a2.35 2.35 0 0 0-1.67.6979L5.1882 8.3856c-.251.253-.251.6717 0 .9247s.6663.253.9172 0l5.6418-5.6877a1.0593 1.0593 0 0 1 1.5056 0l5.6418 5.6877c.2509.253.6663.253.9172 0s.2509-.6717 0-.9247L14.17 2.6979A2.35 2.35 0 0 0 12.5 2"
  />
</svg>
