<svg xmlns="http://www.w3.org/2000/svg" width="24" height="24" fill="none" viewBox="0 0 24 24"><path fill="currentColor" d="M11.5349 21.0698C6.2791 21.0698 2 16.7907 2 11.5349S6.279 2 11.5349 2c5.2558 0 9.5349 4.279 9.5349 9.5349 0 5.2558-4.2791 9.5349-9.5349 9.5349m0-17.6744c-4.493 0-8.1395 3.6558-8.1395 8.1395s3.6465 8.1396 8.1395 8.1396 8.1396-3.6559 8.1396-8.1396-3.6466-8.1395-8.1396-8.1395M21.3024 22a.69.69 0 0 1-.493-.2046l-1.8605-1.8605c-.2698-.2698-.2698-.7163 0-.9861s.7163-.2697.9861 0l1.8604 1.8605c.2698.2698.2698.7163 0 .9861a.69.69 0 0 1-.493.2046"/></svg>