<svg xmlns="http://www.w3.org/2000/svg" width="24" height="24" fill="none" viewBox="0 0 24 24"><path stroke="currentColor" stroke-linejoin="round" stroke-width="1.5" d="M17.5 8A2.5003 2.5003 0 0 0 20 5.5a2.5001 2.5001 0 0 0-4.2678-1.7678A2.5001 2.5001 0 0 0 17.5 8Zm-11 6.5a2.5001 2.5001 0 0 0 1.7678-4.2678A2.5001 2.5001 0 1 0 6.5 14.5Z"/><path stroke="currentColor" stroke-linecap="round" stroke-linejoin="round" stroke-width="1.5" d="m14.9999 6.7875-6.33 3.835m-.0005 2.6595 6.67 3.9415"/><path stroke="currentColor" stroke-linejoin="round" stroke-width="1.5" d="M17.5 16c.663 0 1.2989.2634 1.7678.7322a2.5004 2.5004 0 0 1 0 3.5356 2.5004 2.5004 0 0 1-3.5356 0 2.5004 2.5004 0 0 1 0-3.5356A2.5 2.5 0 0 1 17.5 16Z"/></svg>