<svg xmlns="http://www.w3.org/2000/svg" width="24" height="24" fill="none" viewBox="0 0 24 24"><path fill="currentColor" d="M10.5636 7.8222a.685.685 0 0 1-.4896-.2032L7.127 4.672 4.1803 7.619c-.268.2679-.7114.2679-.9793 0s-.2679-.7113 0-.9792l3.4366-3.4366A.692.692 0 0 1 7.127 3a.692.692 0 0 1 .4896.2032l3.4365 3.4366c.2679.2679.2679.7113 0 .9792a.685.685 0 0 1-.4896.2032"/><path fill="currentColor" d="M7.1264 21.014c-.3787 0-.6928-.3141-.6928-.6928V3.6929c0-.3788.314-.6929.6928-.6929s.6929.314.6929.6929v16.6283c0 .3787-.3141.6928-.6929.6928m9.7468 0a.692.692 0 0 1-.4897-.2032l-3.4365-3.4365c-.2679-.2679-.2679-.7114 0-.9793s.7113-.2679.9792 0l2.947 2.9469L19.82 16.395c.2679-.2679.7114-.2679.9793 0s.2679.7114 0 .9793l-3.4366 3.4365c-.1293.1293-.314.2032-.4895.2032"/><path fill="currentColor" d="M16.8637 21.014c-.3787 0-.6928-.3141-.6928-.6928V3.6929c0-.3788.3141-.6929.6928-.6929.3788 0 .6929.314.6929.6929v16.6283c0 .3787-.3049.6928-.6929.6928"/></svg>