<svg xmlns="http://www.w3.org/2000/svg" width="24" height="24" fill="none" viewBox="0 0 24 24"><path fill="currentColor" d="M12.0184 18.6211c-3.643 0-6.6029-2.9599-6.6029-6.6029s2.96-6.6029 6.6029-6.6029 6.603 2.96 6.603 6.6029-2.96 6.6029-6.603 6.6029m0-11.8397c-2.887 0-5.2367 2.3498-5.2367 5.2368 0 2.8871 2.3497 5.2368 5.2367 5.2368 2.8871 0 5.2368-2.3497 5.2368-5.2368s-2.3497-5.2368-5.2368-5.2368M12.0182 22c-.5009 0-.9107-.3734-.9107-.8743v-.0729c0-.5009.4098-.9107.9107-.9107s.9108.4098.9108.9107-.4099.9472-.9108.9472m6.5027-2.5683c-.2367 0-.4644-.0911-.6466-.2641l-.1184-.1184a.907.907 0 0 1 0-1.2842.907.907 0 0 1 1.2842 0l.1184.1184a.907.907 0 0 1 0 1.2842.896.896 0 0 1-.6376.2641m-13.0054 0c-.2368 0-.4645-.0911-.6467-.2641a.907.907 0 0 1 0-1.2842l.1185-.1184a.907.907 0 0 1 1.2841 0 .907.907 0 0 1 0 1.2842l-.1184.1184a.912.912 0 0 1-.6375.2641m15.6102-6.5027h-.0729c-.5009 0-.9107-.4099-.9107-.9108s.4098-.9107.9107-.9107.9472.4098.9472.9107-.3734.9108-.8743.9108m-18.142 0h-.073c-.5009 0-.9107-.4099-.9107-.9108s.4098-.9107.9108-.9107c.5009 0 .9471.4098.9471.9107s-.3734.9108-.8743.9108m15.4189-6.3844c-.2368 0-.4645-.091-.6467-.264a.907.907 0 0 1 0-1.2842l.1184-.1184a.907.907 0 0 1 1.2842 0 .907.907 0 0 1 0 1.2841l-.1184.1184a.896.896 0 0 1-.6375.2641m-12.7687 0c-.2368 0-.4645-.091-.6466-.264l-.1185-.1276a.907.907 0 0 1 0-1.2841.907.907 0 0 1 1.2842 0l.1184.1184a.907.907 0 0 1 0 1.2841.884.884 0 0 1-.6375.2732m6.3843-2.6867c-.5009 0-.9107-.3734-.9107-.8743v-.0728c0-.501.4098-.9108.9107-.9108s.9108.4098.9108.9108c0 .5009-.4099.9471-.9108.9471"/></svg>