<svg xmlns="http://www.w3.org/2000/svg" width="24" height="24" fill="none" viewBox="0 0 24 24"><path fill="currentColor" d="M11.988 12.6977c-2.9488 0-5.3488-2.4-5.3488-5.3489C6.6392 4.4 9.0392 2 11.988 2s5.3488 2.4 5.3488 5.3488c0 2.9489-2.4 5.3489-5.3488 5.3489m0-9.3023c-2.1768 0-3.9535 1.7767-3.9535 3.9534 0 2.1768 1.7768 3.9535 3.9535 3.9535s3.9535-1.7767 3.9535-3.9535c0-2.1767-1.7768-3.9534-3.9535-3.9534M19.9789 22c-.3814 0-.6977-.3163-.6977-.6977 0-3.2093-3.2744-5.8139-7.293-5.8139s-7.293 2.6046-7.293 5.8139c0 .3814-.3163.6977-.6977.6977s-.6977-.3163-.6977-.6977c0-3.9721 3.8977-7.2093 8.6884-7.2093s8.6883 3.2372 8.6883 7.2093c0 .3814-.3162.6977-.6976.6977"/></svg>